<?xml version="1.0" encoding="UTF-8" standalone="no"?>
<svg
   xmlns:dc="http://purl.org/dc/elements/1.1/"
   xmlns:cc="http://creativecommons.org/ns#"
   xmlns:rdf="http://www.w3.org/1999/02/22-rdf-syntax-ns#"
   xmlns:svg="http://www.w3.org/2000/svg"
   xmlns="http://www.w3.org/2000/svg"
   xmlns:sodipodi="http://sodipodi.sourceforge.net/DTD/sodipodi-0.dtd"
   xmlns:inkscape="http://www.inkscape.org/namespaces/inkscape"
   inkscape:version="1.0 (4035a4fb49, 2020-05-01)"
   sodipodi:docname="transparent.png.svg"
   viewBox="0 0 1024 1024"
   height="1024"
   width="1024"
   id="svg62"
   version="1.1">
  <metadata
     id="metadata68">
    <rdf:RDF>
      <cc:Work
         rdf:about="">
        <dc:format>image/svg+xml</dc:format>
        <dc:type
           rdf:resource="http://purl.org/dc/dcmitype/StillImage" />
        <dc:title></dc:title>
      </cc:Work>
    </rdf:RDF>
  </metadata>
  <defs
     id="defs66" />
  <sodipodi:namedview
     inkscape:current-layer="g70"
     inkscape:window-maximized="1"
     inkscape:window-y="0"
     inkscape:window-x="0"
     inkscape:cy="512"
     inkscape:cx="512"
     inkscape:zoom="0.79980469"
     showgrid="false"
     id="namedview64"
     inkscape:window-height="1016"
     inkscape:window-width="1920"
     inkscape:pageshadow="2"
     inkscape:pageopacity="0"
     guidetolerance="10"
     gridtolerance="10"
     objecttolerance="10"
     borderopacity="1"
     bordercolor="#666666"
     pagecolor="#ffffff" />
  <g
     id="g70"
     inkscape:label="Image"
     inkscape:groupmode="layer">
    <g
       transform="translate(-0.56166509,-24.366297)"
       id="g76">
      <path
         id="path80"
         d="m 210.58708,738.14089 -0.55112,-0.89173 4.87393,-9.96668 4.87394,-9.96668 3.12725,-3.56174 3.12724,-3.56174 8.73084,-5.95137 8.73084,-5.95137 11,-6.49965 11,-6.49965 9.5,-5.04725 9.5,-5.04725 11.40496,-5.18132 11.40495,-5.18133 12.59505,-5.05561 12.59504,-5.05561 19.0333,-6.27474 19.03329,-6.27475 19.96671,-4.99408 19.9667,-4.99408 14,-2.57373 14,-2.57372 11.79235,-1.51724 11.79235,-1.51725 17.20765,-0.93271 17.20765,-0.93272 16.5,0.91862 16.5,0.91861 9.36299,1.42593 9.36298,1.42592 0.93239,0.93239 0.93239,0.93239 -4.02818,9.28743 -4.02818,9.28743 -2.45956,4.19692 -2.45956,4.19691 -1.4554,1.20788 -1.4554,1.20787 -14.35223,-2.22837 -14.35224,-2.22838 -27,-0.0396 -27,-0.0396 -14,1.80742 -14,1.80742 -11.15794,1.92637 -11.15794,1.92637 -13.34206,3.02818 -13.34206,3.02819 -15.89971,4.55203 -15.89972,4.55202 -15.82531,5.43662 -15.82532,5.43662 -15.42222,6.42201 -15.42222,6.42201 -15.09054,7.55786 -15.09054,7.55787 -11.26221,6.66246 -11.26221,6.66247 -7,4.66054 -7,4.66054 -1.1809,0.69316 -1.1809,0.69316 -0.55112,-0.89173 z M 103.63241,635.5401 l -5.867599,-2.41242 -2.353384,-2.21089 -2.353385,-2.21089 -1.197605,-3.60295 -1.197606,-3.60295 0.121621,-6.5 0.121622,-6.5 3.606629,-12 3.606629,-12 7.396618,-22.5 7.39661,-22.5 2.5412,-9.5 2.5412,-9.5 0.003,-2.14301 0.003,-2.14301 -1.25,-0.46834 -1.25,-0.46835 -7,0.8741 -7,0.8741 -8.697575,0.92112 -8.697575,0.92113 -3.439965,-0.94982 -3.439966,-0.94982 -0.598805,-2.23405 -0.598805,-2.23405 0.0037,-4.5 0.0037,-4.5 1.460687,-6.89472 1.460686,-6.89471 0.375708,-0.37571 0.375708,-0.37571 11.396242,-0.32465 11.39624,-0.32466 16,-2.61065 16,-2.61066 11.5,-1.01591 11.5,-1.01591 17,-0.6317 17,-0.63171 1.91059,1.45736 1.91059,1.45736 -0.0677,4.47616 -0.0677,4.47616 -2.13256,7.16072 -2.13256,7.16073 -2.21036,0.50957 -2.21037,0.50957 -14.91491,1.45016 -14.91491,1.45016 -1.16368,1.29937 -1.16367,1.29938 -3.55522,8 -3.55522,8 -4.1527,12.81962 -4.1527,12.81963 -6.99007,27.18037 -6.99007,27.18038 -4.11064,12.88722 -4.11064,12.88721 -1.86279,1.86279 L 113,638 l -1.75,-0.0237 -1.75,-0.0237 -5.86759,-2.41243 z m 80.60994,-14.03418 -3.25764,-1.4158 -3.33107,-2.54073 -3.33107,-2.54073 -2.83891,-5.21602 -2.83891,-5.21602 -0.44244,-7.64276 -0.44243,-7.64277 1.6963,-8.37161 1.69631,-8.3716 2.9616,-9.24551 2.9616,-9.24552 7.90353,-21.00163 7.90353,-21.00164 3.12272,-10.77679 3.12272,-10.77679 0.58762,-9.33029 0.58762,-9.33028 1.54503,-1.54503 1.54503,-1.54503 7.05325,0.65483 7.05326,0.65484 3.65534,0.98353 3.65533,0.98354 2.34467,1.89971 2.34466,1.89971 -0.0216,12.33723 -0.0216,12.33724 -1.79144,6 -1.79144,6 -3.59749,7.75611 -3.59748,7.7561 0.56609,0.5661 0.5661,0.56609 6.12076,-4.17799 6.12077,-4.178 6.7237,-2.37311 6.7237,-2.37312 4.5,-0.0155 4.5,-0.0155 3.70451,1.02887 3.70452,1.02887 2.04548,2.60041 2.04549,2.60042 v 4.17755 4.17755 l -2.89032,8.43759 -2.89032,8.43759 -3.67921,8.5 -3.6792,8.5 -1.4157,6 -1.41569,6 -0.0148,3.75 L 250,585 h 2.03984 2.03984 l 3.90387,-1.99161 3.90387,-1.99161 3.66197,-3.75839 3.66196,-3.75839 3.53613,-7 3.53613,-7 3.9371,-10.5 3.9371,-10.5 2.88847,-6 2.88848,-6 3.78262,-4.93622 3.78262,-4.93623 4.70117,-3.3723 4.70117,-3.3723 5.69086,-2.00018 5.69087,-2.00017 8.30499,-0.5861 8.30499,-0.58609 4.59679,1.28703 4.5968,1.28702 3.4019,3.97436 3.40191,3.97436 1.55427,4.56155 1.55428,4.56155 v 7.16531 7.16531 l -2.02086,5.90655 -2.02085,5.90655 -3.71129,5.41024 -3.71128,5.41025 -4.76578,3.76712 -4.76577,3.76713 -5.75208,2.21861 -5.75209,2.21861 -9.47032,0.10402 -9.47032,0.10402 -1.26494,2.5 -1.26494,2.5 -0.0147,1.57569 -0.0147,1.57568 2.58327,2.42432 2.58328,2.42431 6.66672,-0.0183 6.66673,-0.0183 6.59771,-3.10789 6.59771,-3.10788 8.29513,-5.68096 8.29513,-5.68097 1.02376,1.02376 1.02377,1.02377 -1.25185,5.59384 -1.25185,5.59384 -4.22961,6.18955 -4.22962,6.18956 -5.93514,4.80163 -5.93514,4.80162 -6,2.93131 -6,2.93131 -7,1.6114 -7,1.6114 -5.5,-0.61754 -5.5,-0.61753 -5.20791,-2.52976 -5.20792,-2.52976 -2.90507,-3.69704 -2.90507,-3.69704 -1.69929,-3.32076 -1.69929,-3.32077 -1.50476,1.24885 -1.50476,1.24884 -5.99158,8.74794 -5.99158,8.74794 -3.44178,2.62517 -3.44177,2.62517 -3.33177,1.3921 -3.33177,1.39211 -5.15411,0.68371 -5.1541,0.68372 -3.06089,-1.26787 -3.0609,-1.26786 -1.65399,-3.10914 -1.65399,-3.10915 0.12044,-11.5 0.12044,-11.5 1.56749,-10 1.56749,-10 2.68204,-11.74785 2.68203,-11.74785 -0.63079,-0.6308 -0.6308,-0.63079 -4.99916,3.20796 -4.99916,3.20795 -4.15528,4.03256 -4.15528,4.03256 -4.31588,9.13813 -4.31589,9.13813 -3.51197,11.62425 -3.51198,11.62426 -1.49836,8.58432 -1.49837,8.58432 -1.09254,2.04142 -1.09254,2.04143 -1.71481,-0.0391 -1.71482,-0.0391 -3.25765,-1.4158 z m 137.21114,-69.02201 3.95348,-0.65088 3.83575,-1.95685 3.83574,-1.95685 1.95703,-3.20967 1.95703,-3.20966 0.004,-2.67327 0.004,-2.67328 -2.58889,-3.07672 L 331.82273,530 h -2.46076 -2.46077 l -2.77549,1.43526 -2.77549,1.43526 -3.63981,4.02884 -3.63981,4.02883 -2.53504,5.00266 -2.53504,5.00266 v 0.95992 0.95992 l 1.75,0.46675 1.75,0.46675 2.5,-0.32603 2.5,-0.32603 3.95349,-0.65088 z m 35.04651,51.30287 -3,-1.05533 -1.25,-0.98817 -1.25,-0.98817 v -3.0096 -3.00959 l 7.99045,-33.61796 7.99044,-33.61796 1.9335,-7 1.9335,-7 1.58517,-8.40852 1.58517,-8.40852 1.11333,-1.34148 L 376.24489,494 h 3.47365 3.47365 l 5.32014,1.54661 5.32014,1.54661 1.11834,1.34751 1.11834,1.34752 0.60004,5.35587 0.60004,5.35588 0.70133,1.33254 0.70133,1.33254 6.41405,-5.0636 6.41406,-5.06361 7.94357,-5.00994 7.94357,-5.00993 3.29986,-0.61906 3.29985,-0.61906 2.38749,0.59923 2.38749,0.59922 1.73226,3.65046 1.73226,3.65046 -0.46171,9.11037 -0.46171,9.11038 -2.31001,6 -2.31002,6 -6.6779,6.6899 -6.6779,6.6899 -2.71012,0.6802 -2.71012,0.68019 -0.49999,-0.49998 -0.49998,-0.49999 2.24729,-4.31152 2.24729,-4.31152 0.0493,-5.38766 0.0493,-5.38765 -1.94113,-1.42094 L 417.61781,522 h -0.69492 -0.69491 l -5.91016,3.94665 -5.91015,3.94665 -4.77291,4.80335 -4.77291,4.80335 -3.89187,8 -3.89187,8 -2.95494,12.5 -2.95494,12.5 -2.28866,10.45458 -2.28866,10.45458 -1.79542,1.79542 L 373,605 l -6.75,-0.0789 -6.75,-0.0789 -3,-1.05533 z m 84,-6.28972 -4,-1.41515 -2.25,-2.59672 -2.25,-2.59672 V 579.5547 568.22094 l 1.51027,-7.96149 1.51027,-7.9615 4.51887,-15.39897 4.51888,-15.39898 1.47086,-8.38099 L 447,504.73802 v -5.74657 -5.74656 l 1.59055,-1.32004 1.59055,-1.32004 10.03584,-0.0524 10.03584,-0.0524 2.12361,2.83374 2.12361,2.83375 -0.12369,7.41625 -0.1237,7.41626 h 0.43192 0.43192 l 11.19177,-11.32163 11.19178,-11.32164 3.65113,-1.67836 3.65113,-1.67837 h 3.56407 3.56408 l 3.52244,3.09274 3.52244,3.09275 1.17064,3.90725 1.17065,3.90726 h 1.11517 1.11517 l 7.97654,-8.05144 7.97654,-8.05145 4.42144,-2.94855 4.42145,-2.94856 h 5.71777 5.71777 l 2.16014,1.75 2.16013,1.75 0.9268,4 0.92679,4 0.0239,4.29216 0.0239,4.29216 -1.52522,7.38406 -1.52522,7.38406 -5.57053,15.30142 -5.57052,15.30141 -0.53004,5.13561 -0.53005,5.1356 1.15318,0.71271 1.15318,0.7127 4.45325,-2.15578 4.45326,-2.15578 4.83511,-4.34719 4.83512,-4.34718 1.75329,-6.32298 1.75329,-6.32298 5.02673,-13.5 5.02673,-13.5 5.0472,-9.71001 5.04719,-9.71 2.38933,-2.24466 2.38933,-2.24466 6.2177,-0.34939 6.21769,-0.3494 3.5,1.80406 3.5,1.80406 0.29646,2.07377 0.29645,2.07377 -6.42063,17.42623 -6.42063,17.42623 -3.05674,9.54628 -3.05674,9.54628 -1.56908,6.76577 -1.56909,6.76578 v 1.93794 1.93795 h 1.26314 1.26313 l 7.88559,-6.92262 7.88558,-6.92262 3.10128,-1.51364 3.10128,-1.51365 1.75,-0.53235 1.75,-0.53235 0.0156,-3.28139 0.0156,-3.28138 1.34529,-5.5 1.34529,-5.5 2.1773,-5.38396 2.1773,-5.38396 4.54834,-7.03102 4.54834,-7.03102 5.62928,-5.90171 5.62928,-5.90171 6.53417,-4.30147 6.53417,-4.30147 6,-2.27553 6,-2.27553 8,-0.0508 8,-0.0508 5.54563,2.54557 5.54563,2.54558 3.66429,3.21728 3.66428,3.21728 2.79008,5.68161 2.79009,5.6816 -0.0196,9.5 -0.0196,9.5 -2.3246,7.5 -2.3246,7.5 -4.48199,8.70154 -4.48199,8.70154 -4.78318,6.29846 -4.78317,6.29846 -5.87265,5.80678 -5.87265,5.80678 -5.41814,3.59636 -5.41815,3.59635 -5.09982,2.00221 -5.09982,2.00221 -7,0.073 -7,0.073 -4.71957,-2.15867 -4.71958,-2.15868 -4.33022,-4.45547 -4.33023,-4.45548 -3.25884,-6.11421 -3.25884,-6.11422 -1.19136,0.0531 -1.19136,0.0531 -6,8.10806 -6,8.10806 -4.75903,3.26984 -4.75904,3.26984 -5.71298,1.18602 -5.71299,1.18601 -5.41232,-0.5586 -5.41231,-0.5586 -2.81953,-2.70128 -2.81953,-2.70128 -1.59305,-3.35711 -1.59305,-3.35711 h -0.56281 -0.5628 l -5.78934,6.00911 -5.78934,6.00911 -5.85094,2.68767 -5.85094,2.68767 -5.83031,0.42922 -5.83031,0.42922 -2.40969,-1.28963 -2.4097,-1.28963 -2.26,-4.58637 L 523.5,573.5 l 0.13875,-11.5 0.13874,-11.5 2.23957,-10.5 2.23956,-10.5 0.48827,-2.25 0.48826,-2.25 h -1.61768 -1.61769 l -4.08173,4.20594 -4.08172,4.20594 -4.89639,10.04406 -4.89638,10.04406 -4.64224,16.5 -4.64224,16.5 -1.53353,1.75 -1.53353,1.75 h -4.63312 -4.63312 l -4.46189,-2.25 -4.46189,-2.25 -1.23524,-3.78374 -1.23524,-3.78375 1.05038,-7.55199 1.05039,-7.55199 3.85336,-15.64161 3.85337,-15.64161 -0.47066,-0.76154 -0.47065,-0.76154 -2.38137,1.56033 -2.38136,1.56033 -3.97254,5.17855 -3.97254,5.17856 -3.02648,6 -3.02648,6 -2.6113,8 -2.6113,8 -2.38479,11.98299 -2.38479,11.98299 -2.18216,1.76701 -2.18217,1.76701 -3.13921,-0.0439 -3.13922,-0.0439 -4,-1.41515 z m 230.07831,-48.96447 4.94131,-1.46741 4.06319,-4.28259 4.06319,-4.28259 1.52255,-2.5 1.52254,-2.5 2.1498,-5.77508 2.14981,-5.77508 0.61798,-6.72492 0.61799,-6.72492 -1.1021,-4.06513 -1.1021,-4.06513 -2.57208,-2.41634 -2.57208,-2.41635 -3.71627,0.0974 -3.71628,0.0974 -4.28831,2.18774 -4.28831,2.18773 0.38893,1.1668 0.38894,1.16681 3.89337,0.80892 3.89338,0.80893 2.28312,2.14488 2.28312,2.14488 v 1.73779 1.73778 l -3.8338,0.64772 -3.83379,0.64772 -3.13596,1.90709 -3.13596,1.90709 -2.97506,4.10694 -2.97505,4.10695 -1.18857,5.31105 -1.18856,5.31106 0.47808,5.76495 0.47807,5.76495 1.84643,1.35014 1.84643,1.35014 h 0.62737 0.62737 l 4.94131,-1.46741 z M 721,569.84182 l -6.5,-2.04585 -1.25,-1.02043 -1.25,-1.02043 v -7.41971 -7.41972 l 1.56123,-7.55837 1.56122,-7.55838 2.80874,-7.64947 2.80875,-7.64946 4.26228,-11 4.26229,-11 3.11774,-15.5 3.11775,-15.5 3.78942,-0.31272 3.78941,-0.31271 5.49573,1.14091 5.49572,1.14091 2.71486,2.33467 2.71486,2.33468 0.16731,6.30957 0.16731,6.30956 1.08344,0.36115 1.08343,0.36114 8.92383,-8.98351 8.92382,-8.98351 5.61294,-2.10007 L 791.07503,465 h 3.77135 3.77136 l 1.94113,1.42079 1.94113,1.42078 -0.14668,7.32922 -0.14668,7.32921 -3.63153,13.5 -3.63154,13.5 -3.63763,14.25083 -3.63762,14.25082 0.61324,0.61324 0.61324,0.61325 3.40908,-2.10693 3.40907,-2.10692 4.59613,-4.91363 4.59612,-4.91363 3.61528,-5.6516 3.61529,-5.6516 2.98427,-6.65137 2.98426,-6.65137 5.05397,-16.54054 5.05396,-16.54055 1.59995,-2.73384 1.59995,-2.73384 3.4355,-1.63026 3.43551,-1.63025 4.26709,0.48096 4.26709,0.48097 3.08895,2.19952 3.08895,2.19953 0.64467,2.56854 0.64466,2.56854 -7.5978,23.61506 -7.59779,23.61507 -2.04448,7.76116 L 835,532.02232 v 2.01028 2.01028 l 2.59856,1.18398 2.59856,1.18398 5.32526,-2.78812 5.32526,-2.78813 15.57618,-15.24433 L 882,502.34594 v -1.55778 -1.55778 l -7.94695,-15.93994 -7.94694,-15.93994 -4.20104,-4.32888 -4.20103,-4.32888 0.95621,-1.5159 0.9562,-1.5159 3.69543,-1.27939 3.69543,-1.27939 8.01697,-1.22725 8.01697,-1.22726 3.50872,3.40078 3.50871,3.40078 5.51175,10.7754 L 901.08218,479 h 1.2507 1.2507 l 4.04158,-4.25 4.04157,-4.25 4.54162,-6.5 4.54161,-6.5 5.08218,-4.75 5.08218,-4.75 2.29284,0.006 2.29284,0.006 3.70451,1.02887 3.70452,1.02887 2.04548,2.60041 2.04549,2.60042 v 3.76359 3.7636 l -3.05708,5.8116 -3.05708,5.81161 -5.68779,7.03994 -5.68779,7.03994 -5.75513,6.35083 -5.75513,6.35084 7.9e-4,2.14916 7.9e-4,2.14917 2.93586,6.20584 2.93586,6.20583 5.31335,5.33758 5.31335,5.33757 3.39879,2.5067 3.39879,2.5067 -0.73173,3.90048 -0.73174,3.90048 -3.79941,3.79941 -3.79941,3.79941 -4.86764,-0.022 -4.86765,-0.022 -4.35007,-1.97395 -4.35007,-1.97395 -5.70785,-5.83327 -5.70786,-5.83328 -1.3134,-3.17081 -1.31339,-3.17082 h -1.86996 -1.86996 l -9.38404,11.75 -9.38404,11.75 -2.57693,2.75 -2.57693,2.75 h -1.46698 -1.46699 l -5.85898,-1.501 -5.85898,-1.501 -4.97178,1.3798 -4.97179,1.3798 -7.28582,2.64028 -7.28582,2.64027 -5.77633,0.60375 -5.77633,0.60374 -3.23207,-1.67137 -3.23208,-1.67137 -1.95203,-3.20145 -1.95204,-3.20145 -0.004,-3.25 L 811,546 h -0.49357 -0.49357 l -6.75643,6.86473 -6.75643,6.86474 -5.5,2.79899 -5.5,2.79899 -7.55959,0.45374 -7.55959,0.45374 -4.26605,-2.17638 -4.26605,-2.17638 -1.52562,-3.6513 -1.52561,-3.6513 0.41452,-11.03978 0.41451,-11.03979 3.81946,-11.28394 3.81946,-11.28395 -0.53979,-0.53979 -0.53979,-0.53979 -2.96289,1.53217 -2.96289,1.53217 -4.48415,4.98746 -4.48416,4.98746 -3.59235,7.30411 -3.59235,7.3041 -2.59384,9 -2.59383,9 -1.3235,7.62511 -1.32349,7.62511 -0.69522,1.12489 L 734.88197,572 731.19098,571.9438 727.5,571.8876 721,569.84175 Z m -277.25,-98.40767 -0.75,-0.76748 0.0183,-11.58334 0.0183,-11.58333 1.49131,-10.49374 1.49132,-10.49373 2.46711,-9.00627 2.46711,-9.00626 3.08022,-7.96161 3.08021,-7.96161 4.54021,-8.98832 4.54021,-8.98833 3.53386,-5.55006 3.53386,-5.55007 6.60664,-8.5 6.60663,-8.5 8.51234,-8.50993 8.51233,-8.50993 10.08412,-7.58286 10.08413,-7.58287 8.91587,-5.01689 8.91588,-5.01689 8.13468,-3.56832 8.13467,-3.56831 11.09389,-3.51292 11.09389,-3.51292 12.27144,-1.99151 12.27143,-1.9915 10,-0.60413 10,-0.60412 12.32493,1.03288 12.32492,1.03289 10.17508,2.06024 10.17507,2.06025 10.5,3.49285 10.5,3.49285 10.5,5.00731 10.5,5.0073 11,7.34017 11,7.34016 7.75936,7.09374 7.75936,7.09374 7.08983,7.75936 7.08982,7.75936 6.35096,9.52019 6.35095,9.5202 4.48563,8.79083 4.48562,8.79083 2.97941,7.80227 2.9794,7.80227 3.11193,12.36491 3.11194,12.3649 0.60691,8.55023 0.60691,8.55022 -2.54494,1.15955 -2.54494,1.15955 -3.60004,0.67537 -3.60003,0.67537 -1.36178,-1.13017 -1.36177,-1.13017 -0.69166,-6.23318 -0.69165,-6.23317 -1.97413,-9.17638 -1.97414,-9.17638 -2.81454,-8.32362 -2.81454,-8.32362 -3.28582,-7.5 -3.28582,-7.5 -5.01832,-8.91588 -5.01832,-8.91587 -7.22416,-9.58413 -7.22415,-9.58412 -7.36864,-7.57273 -7.36864,-7.57274 -6.5,-5.35326 -6.5,-5.35327 -8.22726,-5.37219 -8.22727,-5.37219 -11.27273,-5.36282 -11.27274,-5.36282 -7.8843,-2.59589 -7.8843,-2.59588 -9.6157,-2.04146 -9.6157,-2.04146 -14.5,-0.58716 -14.5,-0.58715 -10.10103,1.1752 -10.10103,1.17521 -11.2682,2.95634 -11.2682,2.95633 -9.2298,3.94341 -9.22981,3.9434 -8.50159,4.89204 -8.5016,4.89204 -7.85936,5.91513 -7.85935,5.91512 -8.54873,8.5034 -8.54874,8.5034 -6.2573,8.33281 -6.2573,8.33281 -5.3835,9.16719 -5.38349,9.16719 -4.14817,9.73309 -4.14817,9.7331 -2.51616,8.2669 -2.51616,8.26691 -1.96499,9.5 -1.96499,9.5 -0.6184,16.22826 -0.6184,16.22825 -1.71562,1.55262 -1.71562,1.55261 -4.88714,0.56995 -4.88715,0.56994 -0.75,-0.76748 z m 170.54855,-2.39367 -3.20145,-1.95203 -1.65882,-3.2078 -1.65881,-3.20779 0.4294,-5.17806 0.42941,-5.17807 2.2597,-3.17345 2.2597,-3.17346 3.17116,-1.64641 3.17116,-1.64642 4.03082,-0.005 4.03082,-0.005 2.77029,1.81516 2.77029,1.81517 1.44889,2.80184 L 636,449.901 v 4.90178 4.90177 l -2.2738,3.37409 -2.27379,3.37409 -3.37409,2.27379 -3.37409,2.2738 -3.60211,-0.004 -3.60212,-0.004 -3.20145,-1.95204 z m -114.30365,-2.05001 -1.07547,-2.00953 1.02225,-11.74047 1.02224,-11.74047 2.14313,-8.5 2.14313,-8.5 3.74077,-8.70085 3.74078,-8.70086 4.56794,-7.29914 4.56794,-7.29915 5.9754,-7 5.9754,-7 5.81261,-5 5.81262,-5 7.85314,-5.25733 7.85314,-5.25734 8.17504,-3.88512 8.17504,-3.88511 8.126,-2.55207 8.12601,-2.55207 8.87399,-1.70781 8.874,-1.70781 13,-0.0212 13,-0.0212 8.77488,1.71044 8.77489,1.71043 8.72511,3.06101 8.72512,3.06102 6.99658,3.65208 6.99659,3.65208 7.51102,5.56612 7.51102,5.56612 6.88077,6.93388 6.88077,6.93388 4.9543,7 4.9543,7 4.4175,8.75028 4.41751,8.75029 2.52237,7.72706 2.52236,7.72707 1.43831,8.89284 1.43832,8.89285 -0.94975,1.77462 -0.94975,1.77462 -3.17033,1.10519 L 733.70155,454 h -2.87221 -2.87222 l -0.88959,-2.25 -0.88959,-2.25 -1.21805,-7.5 -1.21806,-7.5 -2.49396,-7.5 -2.49396,-7.5 -2.81491,-6.25148 -2.81492,-6.25149 -5.69334,-8.74851 -5.69335,-8.74852 -8.55028,-8.75063 -8.55028,-8.75063 -7.06841,-4.8726 -7.06842,-4.8726 -7,-3.50857 -7,-3.50856 -8.13549,-2.56573 -8.13549,-2.56572 -8.86451,-1.18401 -8.86451,-1.18401 -9.5,0.58717 -9.5,0.58717 -9.51148,2.42625 -9.51148,2.42626 -6.66478,3.02195 -6.66479,3.02196 -7.32373,4.72663 -7.32374,4.72663 -8.58188,8.61952 -8.58187,8.61952 -4.28409,6.3659 -4.28409,6.3659 -3.81368,7.6341 -3.81368,7.6341 -2.53296,7.56492 -2.53296,7.56493 -1.5374,8.81606 L 515,447.26198 v 7.93475 7.93475 l -1.01177,1.89051 -1.01176,1.8905 -3.73824,1.03818 -3.73823,1.03818 -2.21482,0.006 -2.21481,0.006 -1.07547,-2.00953 z m 59.5051,-0.14424 -2,-1.1753 -0.80127,-1.08547 -0.80126,-1.08546 0.60318,-7.36272 0.60318,-7.36272 2.41264,-7.63728 2.41263,-7.63728 3.42066,-5.68053 3.42067,-5.68053 3.36478,-4.07408 3.36479,-4.07408 5.5,-4.3594 5.5,-4.3594 6.23973,-3.1452 6.23973,-3.1452 6.26027,-1.47601 6.26027,-1.47601 8.30259,-0.0148 8.3026,-0.0148 7.1974,1.59024 7.19741,1.59024 8.42285,4.022 8.42285,4.02201 7.65992,7.65992 7.65993,7.65992 3.65219,7.47784 3.6522,7.47783 1.51503,5.9601 1.51503,5.9601 v 2.83535 2.83536 l -2.45455,2.45454 -2.45454,2.45455 h -3.92301 -3.92301 l -0.98815,-1.25 -0.98814,-1.25 -1.6067,-7.25047 -1.60671,-7.25047 -3.08215,-6.21212 -3.08216,-6.21212 -3.69544,-4.87421 -3.69544,-4.87421 -5.75698,-4.34396 -5.75697,-4.34396 -5.74178,-2.14828 -5.74179,-2.14827 -6.50124,-0.52342 -6.50124,-0.52341 -6.89697,1.62214 -6.89698,1.62215 -5.86567,3.12637 -5.86568,3.12637 -4.96441,4.88673 -4.96442,4.88673 -2.56965,4.38477 -2.56965,4.38478 -1.96961,5.60391 -1.96962,5.60391 -0.87043,8.5875 -0.87042,8.5875 -1.86672,1.86671 -1.86671,1.86672 -2.99653,0.53507 -2.99653,0.53507 -2,-1.1753 z m 283.68982,-16.87186 -3.31017,-2.01816 -1.43983,-3.44599 L 837,441.06424 v -3.2164 -3.21639 l 2.07095,-4.27802 2.07095,-4.27801 3.43192,-2.12104 3.43192,-2.12105 h 4.40716 4.40716 l 2.02043,1.0813 2.02042,1.0813 2.28383,3.20734 2.28383,3.20734 v 5.17169 5.17169 l -2.62505,3.96672 -2.62504,3.96672 -3.49037,1.65628 -3.49037,1.65629 -3.34887,-0.004 -3.34887,-0.004 -3.31018,-2.01815 z"
         style="fill:#e95b33" />
      <path
         id="path78"
         d="m 799.5,676.60729 -3,-1.31442 -3.24867,-3.33491 -3.24867,-3.33491 -2.02565,-5.41405 -2.02566,-5.41405 -1.08911,-7.64747 -1.08912,-7.64748 0.57851,-10.54866 0.5785,-10.54867 1.95008,-6.26562 1.95008,-6.26562 2.24468,-3.27589 2.24468,-3.27589 3.40464,-2.3329 3.40464,-2.3329 5.28888,-0.43859 5.28887,-0.4386 4.50513,1.99283 4.50512,1.99284 2.64339,3.46566 2.64339,3.46566 1.63697,6.63344 1.63697,6.63344 -1.26127,1.51974 -1.26127,1.51973 -3.62755,-0.0153 -3.62756,-0.0153 -1.19432,-0.75929 -1.19432,-0.75929 -0.95393,-4.24563 -0.95393,-4.24563 -1.6248,-2.47977 -1.62481,-2.47976 h -3.30263 -3.30263 l -2.07847,2.25 -2.07846,2.25 -1.13922,4 -1.13921,4 -0.5828,11 -0.58279,11 1.15012,7.346 1.15013,7.346 1.49684,2.89458 1.49685,2.89458 2.48509,1.6283 2.48509,1.62829 2.77182,-1.14812 2.77182,-1.14813 1.33178,-2.13251 1.33177,-2.13251 0.51696,-5.70107 0.51695,-5.70107 -1.28916,-0.79675 -1.28916,-0.79674 -3.08729,-0.63142 -3.08729,-0.63142 v -4.45901 -4.459 h 10 10 v 18.9863 18.98631 l -1.88144,0.36233 -1.88143,0.36233 -2.21263,-1.18416 -2.21262,-1.18415 -3.89113,2.08552 -3.89113,2.08552 -4.51481,-0.0391 -4.51481,-0.0391 -3,-1.31443 z M 586,637.62955 v -38.41557 l 1.58179,-0.60699 L 589.16357,598 H 603.5 617.83643 l 1.58178,0.60699 L 621,599.21398 V 604.60699 610 l -9.75,0.0153 -9.75,0.0153 -1.29135,0.81925 -1.29134,0.81926 0.29134,8.91543 0.29135,8.91543 8,0.5 8,0.5 0.2999,5.75 0.29991,5.75 -7.29991,0.0153 -7.2999,0.0153 -1.28823,0.81733 -1.28823,0.81733 0.28823,9.91735 L 599.5,663.5 611,664 l 11.5,0.5 v 5.5 5.5 l -18.25,0.27256 -18.25,0.27256 z M 632.66667,675.33333 632,674.66667 V 637.53333 600.4 l 1.2,-1.2 1.2,-1.2 h 3.60887 3.60887 l 1.65586,1.25 1.65587,1.25 6.93982,19 6.93983,19 0.7346,1.83385 0.73461,1.83384 0.84552,-1.33384 0.84552,-1.33385 0.0153,-20.14301 0.0153,-20.14301 1.58179,-0.60699 L 665.16354,598 h 2.79577 2.79577 l 1.13475,1.36729 1.13475,1.36729 -0.26231,37.38271 L 672.5,675.5 h -5.38564 -5.38564 l -7.94074,-22 -7.94074,-22 -0.92362,-0.95 L 644,629.6 v 21.61821 21.61822 l -0.60699,1.58178 L 642.78602,676 h -4.72634 -4.72635 z m 54,0 L 686,674.66667 V 637.53333 600.4 l 1.2,-1.2 1.2,-1.2 h 15.67756 15.67755 l 1.18355,1.4261 1.18356,1.42609 -0.31111,4.32391 -0.31111,4.3239 -10,0.5 -10,0.5 -1.25,0.80902 -1.25,0.80901 v 7.3592 7.3592 l 0.60699,1.58178 0.60699,1.58179 h 7.19301 7.19301 l 1.2,1.2 1.2,1.2 v 3.21821 3.21822 l -0.60699,1.58178 L 715.78602,642 H 708.59301 701.4 l -1.2,1.2 -1.2,1.2 0.0153,8.55 0.0153,8.55 0.77145,1.21401 0.77146,1.214 10.96323,0.286 L 722.5,664.5 l 0.2999,5.75 0.29991,5.75 H 705.21657 687.33333 Z M 733,637.56677 V 599.0381 l 2.64632,-0.66418 2.64632,-0.66418 11.31787,0.60654 11.31787,0.60654 3.78581,1.93218 3.78581,1.93218 1.71186,1.89301 1.71186,1.89301 1.53814,3.68128 L 775,613.93576 V 621 v 7.06424 l -1.50519,3.60242 -1.50519,3.60243 -3.45655,3.82598 -3.45655,3.82599 0.94318,2.78947 0.94318,2.78947 4.01856,12.9725 L 775,674.445 V 675.2225 676 h -5.96482 -5.96481 l -0.91589,-1.75 -0.9159,-1.75 -3.74772,-13 -3.74771,-13 -1.03598,-1.30056 -1.03598,-1.30056 -2.58559,0.30056 L 746.5,644.5 746,660 l -0.5,15.5 -6.25,0.29772 -6.25,0.29771 z m 24.79463,-6.23131 2.29464,-1.44006 0.95536,-2.5128 L 762,624.8698 v -3.98456 -3.98456 l -1.45284,-2.80949 -1.45284,-2.80948 -2.92858,-1.21306 -2.92858,-1.21306 -3.36858,0.32221 -3.36858,0.3222 -0.28434,11.41976 -0.28434,11.41976 1.28434,0.81371 1.28434,0.81371 3.5,-0.59571 3.5,-0.59571 z M 845,660.16702 V 644.2386 l -7.57552,-22.26361 -7.57552,-22.26361 1.32552,-0.84037 1.32552,-0.84038 h 4 4 l 1.17237,0.74572 1.17237,0.74573 3.67388,12.48896 3.67388,12.48896 0.82377,0.87002 0.82377,0.87002 3.14286,-10.37002 3.14286,-10.37002 0.98549,-3.16157 0.98549,-3.16157 1.53342,-0.58843 L 863.16357,598 h 3.9496 3.9496 l 0.65153,1.69787 0.65153,1.69786 -6.93291,20.05214 L 858.5,641.5 l -0.5,17 -0.5,17 -6.25,0.29772 -6.25,0.29771 z"
         style="fill:#5a5a5a" />
    </g>
  </g>
</svg>
